<mxfile host="app.diagrams.net" agent="Mozilla/5.0 (Windows NT 10.0; Win64; x64) AppleWebKit/537.36 (KHTML, like Gecko) Chrome/130.0.0.0 Safari/537.36" version="24.8.3">
  <diagram name="Page-1" id="aCs-pM-zfo43uulEf4jd">
    <mxGraphModel dx="1311" dy="517" grid="1" gridSize="10" guides="1" tooltips="1" connect="1" arrows="1" fold="1" page="1" pageScale="1" pageWidth="827" pageHeight="1169" math="0" shadow="0">
      <root>
        <mxCell id="0" />
        <mxCell id="1" parent="0" />
        <mxCell id="gSOltwbDW0qyVYXTcS_t-1" value="Eleve" style="swimlane;fontStyle=1;align=center;verticalAlign=top;childLayout=stackLayout;horizontal=1;startSize=26;horizontalStack=0;resizeParent=1;resizeParentMax=0;resizeLast=0;collapsible=1;marginBottom=0;whiteSpace=wrap;html=1;" parent="1" vertex="1">
          <mxGeometry x="20" y="70" width="160" height="210" as="geometry" />
        </mxCell>
        <mxCell id="gSOltwbDW0qyVYXTcS_t-2" value="-nom: String&lt;div&gt;-prenom: String&lt;/div&gt;&lt;div&gt;-dateNaissance : Date&lt;/div&gt;&lt;div&gt;-lieuNaissance: String&lt;/div&gt;&lt;div&gt;-etabPrecedent: String&lt;/div&gt;&lt;div&gt;-villeEtabPrec: String&lt;/div&gt;&lt;div&gt;-bulletin: Bulletin&lt;/div&gt;&lt;div&gt;-classe: Classe&lt;/div&gt;&lt;div&gt;-note:float&lt;br&gt;&lt;div&gt;&lt;br&gt;&lt;/div&gt;&lt;/div&gt;" style="text;strokeColor=none;fillColor=none;align=left;verticalAlign=top;spacingLeft=4;spacingRight=4;overflow=hidden;rotatable=0;points=[[0,0.5],[1,0.5]];portConstraint=eastwest;whiteSpace=wrap;html=1;" parent="gSOltwbDW0qyVYXTcS_t-1" vertex="1">
          <mxGeometry y="26" width="160" height="144" as="geometry" />
        </mxCell>
        <mxCell id="gSOltwbDW0qyVYXTcS_t-3" value="" style="line;strokeWidth=1;fillColor=none;align=left;verticalAlign=middle;spacingTop=-1;spacingLeft=3;spacingRight=3;rotatable=0;labelPosition=right;points=[];portConstraint=eastwest;strokeColor=inherit;" parent="gSOltwbDW0qyVYXTcS_t-1" vertex="1">
          <mxGeometry y="170" width="160" height="8" as="geometry" />
        </mxCell>
        <mxCell id="gSOltwbDW0qyVYXTcS_t-4" value="+ s&#39;inscrire(nom)" style="text;strokeColor=none;fillColor=none;align=left;verticalAlign=top;spacingLeft=4;spacingRight=4;overflow=hidden;rotatable=0;points=[[0,0.5],[1,0.5]];portConstraint=eastwest;whiteSpace=wrap;html=1;" parent="gSOltwbDW0qyVYXTcS_t-1" vertex="1">
          <mxGeometry y="178" width="160" height="32" as="geometry" />
        </mxCell>
        <mxCell id="gSOltwbDW0qyVYXTcS_t-5" value="Professeur" style="swimlane;fontStyle=1;align=center;verticalAlign=top;childLayout=stackLayout;horizontal=1;startSize=26;horizontalStack=0;resizeParent=1;resizeParentMax=0;resizeLast=0;collapsible=1;marginBottom=0;whiteSpace=wrap;html=1;" parent="1" vertex="1">
          <mxGeometry x="20" y="360" width="190" height="164" as="geometry" />
        </mxCell>
        <mxCell id="gSOltwbDW0qyVYXTcS_t-6" value="-nom: String&lt;div&gt;-prenom: String&lt;/div&gt;&lt;div&gt;-dateNaissance : Date&lt;/div&gt;&lt;div&gt;-lieuNaissance: String&lt;/div&gt;&lt;div&gt;-dateDiplome: Date&lt;/div&gt;&lt;div&gt;-etabPrecedent: String&lt;/div&gt;&lt;div&gt;-ListeMatiere: List&amp;lt;Matiere&amp;gt;&lt;br&gt;&lt;div&gt;&lt;br&gt;&lt;/div&gt;&lt;/div&gt;" style="text;strokeColor=none;fillColor=none;align=left;verticalAlign=top;spacingLeft=4;spacingRight=4;overflow=hidden;rotatable=0;points=[[0,0.5],[1,0.5]];portConstraint=eastwest;whiteSpace=wrap;html=1;" parent="gSOltwbDW0qyVYXTcS_t-5" vertex="1">
          <mxGeometry y="26" width="190" height="104" as="geometry" />
        </mxCell>
        <mxCell id="gSOltwbDW0qyVYXTcS_t-7" value="" style="line;strokeWidth=1;fillColor=none;align=left;verticalAlign=middle;spacingTop=-1;spacingLeft=3;spacingRight=3;rotatable=0;labelPosition=right;points=[];portConstraint=eastwest;strokeColor=inherit;" parent="gSOltwbDW0qyVYXTcS_t-5" vertex="1">
          <mxGeometry y="130" width="190" height="8" as="geometry" />
        </mxCell>
        <mxCell id="gSOltwbDW0qyVYXTcS_t-8" value="+ method(type): type" style="text;strokeColor=none;fillColor=none;align=left;verticalAlign=top;spacingLeft=4;spacingRight=4;overflow=hidden;rotatable=0;points=[[0,0.5],[1,0.5]];portConstraint=eastwest;whiteSpace=wrap;html=1;" parent="gSOltwbDW0qyVYXTcS_t-5" vertex="1">
          <mxGeometry y="138" width="190" height="26" as="geometry" />
        </mxCell>
        <mxCell id="gSOltwbDW0qyVYXTcS_t-17" value="Classe" style="swimlane;fontStyle=1;align=center;verticalAlign=top;childLayout=stackLayout;horizontal=1;startSize=26;horizontalStack=0;resizeParent=1;resizeParentMax=0;resizeLast=0;collapsible=1;marginBottom=0;whiteSpace=wrap;html=1;" parent="1" vertex="1">
          <mxGeometry x="310" y="50" width="230" height="218" as="geometry" />
        </mxCell>
        <mxCell id="gSOltwbDW0qyVYXTcS_t-18" value="-nom: String&lt;div&gt;-anneeScolaire: int&lt;br&gt;&lt;div&gt;-dateRentree: Date&lt;/div&gt;&lt;div&gt;-heureRentree: String&lt;/div&gt;&lt;div&gt;-eleves: List&amp;lt;Eleve&amp;gt;&lt;/div&gt;&lt;div&gt;-profPrincipal: ProfPrincipal&lt;/div&gt;&lt;div&gt;-matOblig: List&amp;lt;Matiere&amp;gt;&lt;/div&gt;&lt;div&gt;-matFac: List&amp;lt;Matiere&amp;gt;&lt;/div&gt;&lt;div&gt;-profs:List&amp;lt;Professeur&amp;gt;&lt;/div&gt;&lt;/div&gt;&lt;div&gt;-emploiDuTps:List&amp;lt;Cours&amp;gt;&lt;/div&gt;&lt;div&gt;-conseilDeClasse:List&amp;lt;ConseilDeClasse&amp;gt;&lt;/div&gt;&lt;div&gt;&lt;br&gt;&lt;/div&gt;" style="text;strokeColor=none;fillColor=none;align=left;verticalAlign=top;spacingLeft=4;spacingRight=4;overflow=hidden;rotatable=0;points=[[0,0.5],[1,0.5]];portConstraint=eastwest;whiteSpace=wrap;html=1;" parent="gSOltwbDW0qyVYXTcS_t-17" vertex="1">
          <mxGeometry y="26" width="230" height="184" as="geometry" />
        </mxCell>
        <mxCell id="gSOltwbDW0qyVYXTcS_t-19" value="" style="line;strokeWidth=1;fillColor=none;align=left;verticalAlign=middle;spacingTop=-1;spacingLeft=3;spacingRight=3;rotatable=0;labelPosition=right;points=[];portConstraint=eastwest;strokeColor=inherit;" parent="gSOltwbDW0qyVYXTcS_t-17" vertex="1">
          <mxGeometry y="210" width="230" height="8" as="geometry" />
        </mxCell>
        <mxCell id="gSOltwbDW0qyVYXTcS_t-26" value="" style="endArrow=none;html=1;rounded=0;exitX=1.017;exitY=0.303;exitDx=0;exitDy=0;exitPerimeter=0;entryX=1;entryY=0;entryDx=0;entryDy=0;" parent="1" source="gSOltwbDW0qyVYXTcS_t-2" target="gSOltwbDW0qyVYXTcS_t-63" edge="1">
          <mxGeometry width="50" height="50" relative="1" as="geometry">
            <mxPoint x="230" y="170" as="sourcePoint" />
            <mxPoint x="320" y="126" as="targetPoint" />
          </mxGeometry>
        </mxCell>
        <mxCell id="gSOltwbDW0qyVYXTcS_t-27" value="0, n" style="text;html=1;align=center;verticalAlign=middle;whiteSpace=wrap;rounded=0;" parent="1" vertex="1">
          <mxGeometry x="170" y="100" width="60" height="30" as="geometry" />
        </mxCell>
        <mxCell id="gSOltwbDW0qyVYXTcS_t-28" value="ProfPrincipal" style="swimlane;fontStyle=1;align=center;verticalAlign=top;childLayout=stackLayout;horizontal=1;startSize=26;horizontalStack=0;resizeParent=1;resizeParentMax=0;resizeLast=0;collapsible=1;marginBottom=0;whiteSpace=wrap;html=1;" parent="1" vertex="1">
          <mxGeometry x="35" y="630" width="160" height="34" as="geometry" />
        </mxCell>
        <mxCell id="gSOltwbDW0qyVYXTcS_t-30" value="" style="line;strokeWidth=1;fillColor=none;align=left;verticalAlign=middle;spacingTop=-1;spacingLeft=3;spacingRight=3;rotatable=0;labelPosition=right;points=[];portConstraint=eastwest;strokeColor=inherit;" parent="gSOltwbDW0qyVYXTcS_t-28" vertex="1">
          <mxGeometry y="26" width="160" height="8" as="geometry" />
        </mxCell>
        <mxCell id="gSOltwbDW0qyVYXTcS_t-35" value="ConseilDeClasse" style="swimlane;fontStyle=1;align=center;verticalAlign=top;childLayout=stackLayout;horizontal=1;startSize=26;horizontalStack=0;resizeParent=1;resizeParentMax=0;resizeLast=0;collapsible=1;marginBottom=0;whiteSpace=wrap;html=1;" parent="1" vertex="1">
          <mxGeometry x="640" y="80" width="160" height="114" as="geometry" />
        </mxCell>
        <mxCell id="gSOltwbDW0qyVYXTcS_t-36" value="-nom: String&lt;div&gt;-date: Date&lt;/div&gt;" style="text;strokeColor=none;fillColor=none;align=left;verticalAlign=top;spacingLeft=4;spacingRight=4;overflow=hidden;rotatable=0;points=[[0,0.5],[1,0.5]];portConstraint=eastwest;whiteSpace=wrap;html=1;" parent="gSOltwbDW0qyVYXTcS_t-35" vertex="1">
          <mxGeometry y="26" width="160" height="54" as="geometry" />
        </mxCell>
        <mxCell id="gSOltwbDW0qyVYXTcS_t-37" value="" style="line;strokeWidth=1;fillColor=none;align=left;verticalAlign=middle;spacingTop=-1;spacingLeft=3;spacingRight=3;rotatable=0;labelPosition=right;points=[];portConstraint=eastwest;strokeColor=inherit;" parent="gSOltwbDW0qyVYXTcS_t-35" vertex="1">
          <mxGeometry y="80" width="160" height="8" as="geometry" />
        </mxCell>
        <mxCell id="gSOltwbDW0qyVYXTcS_t-38" value="+ method(type): type" style="text;strokeColor=none;fillColor=none;align=left;verticalAlign=top;spacingLeft=4;spacingRight=4;overflow=hidden;rotatable=0;points=[[0,0.5],[1,0.5]];portConstraint=eastwest;whiteSpace=wrap;html=1;" parent="gSOltwbDW0qyVYXTcS_t-35" vertex="1">
          <mxGeometry y="88" width="160" height="26" as="geometry" />
        </mxCell>
        <mxCell id="gSOltwbDW0qyVYXTcS_t-42" value="" style="endArrow=none;html=1;rounded=0;exitX=0.958;exitY=0.214;exitDx=0;exitDy=0;exitPerimeter=0;" parent="1" source="gSOltwbDW0qyVYXTcS_t-18" edge="1">
          <mxGeometry relative="1" as="geometry">
            <mxPoint x="480" y="136.5" as="sourcePoint" />
            <mxPoint x="640" y="136.5" as="targetPoint" />
          </mxGeometry>
        </mxCell>
        <mxCell id="gSOltwbDW0qyVYXTcS_t-46" value="0,n" style="text;html=1;align=center;verticalAlign=middle;whiteSpace=wrap;rounded=0;" parent="1" vertex="1">
          <mxGeometry x="580" y="100" width="60" height="30" as="geometry" />
        </mxCell>
        <mxCell id="gSOltwbDW0qyVYXTcS_t-47" value="" style="endArrow=classic;html=1;rounded=0;exitX=0.5;exitY=0;exitDx=0;exitDy=0;entryX=0.506;entryY=1.134;entryDx=0;entryDy=0;entryPerimeter=0;" parent="1" source="gSOltwbDW0qyVYXTcS_t-28" target="gSOltwbDW0qyVYXTcS_t-8" edge="1">
          <mxGeometry width="50" height="50" relative="1" as="geometry">
            <mxPoint x="390" y="480" as="sourcePoint" />
            <mxPoint x="440" y="430" as="targetPoint" />
          </mxGeometry>
        </mxCell>
        <mxCell id="gSOltwbDW0qyVYXTcS_t-53" value="" style="endArrow=none;html=1;rounded=0;exitX=0.5;exitY=0;exitDx=0;exitDy=0;entryX=0.439;entryY=0.709;entryDx=0;entryDy=0;entryPerimeter=0;" parent="1" source="ctwPpmjzJJEa8-6qd_c5-1" target="gSOltwbDW0qyVYXTcS_t-19" edge="1">
          <mxGeometry relative="1" as="geometry">
            <mxPoint x="399.9999999999998" y="360" as="sourcePoint" />
            <mxPoint x="400" y="250" as="targetPoint" />
          </mxGeometry>
        </mxCell>
        <mxCell id="gSOltwbDW0qyVYXTcS_t-54" value="1,n" style="text;html=1;align=center;verticalAlign=middle;whiteSpace=wrap;rounded=0;" parent="1" vertex="1">
          <mxGeometry x="390" y="268" width="60" height="30" as="geometry" />
        </mxCell>
        <mxCell id="gSOltwbDW0qyVYXTcS_t-58" value="Bulletin" style="swimlane;fontStyle=1;align=center;verticalAlign=top;childLayout=stackLayout;horizontal=1;startSize=26;horizontalStack=0;resizeParent=1;resizeParentMax=0;resizeLast=0;collapsible=1;marginBottom=0;whiteSpace=wrap;html=1;" parent="1" vertex="1">
          <mxGeometry x="640" y="314" width="160" height="138" as="geometry" />
        </mxCell>
        <mxCell id="gSOltwbDW0qyVYXTcS_t-59" value="-eleve: Eleve&lt;div&gt;-appreciationGen: String&lt;/div&gt;&lt;div&gt;-appreciationMat: String&lt;/div&gt;&lt;div&gt;-moyenneGen: float&lt;br&gt;&lt;div&gt;-moyenneMat: float&lt;/div&gt;&lt;/div&gt;" style="text;strokeColor=none;fillColor=none;align=left;verticalAlign=top;spacingLeft=4;spacingRight=4;overflow=hidden;rotatable=0;points=[[0,0.5],[1,0.5]];portConstraint=eastwest;whiteSpace=wrap;html=1;" parent="gSOltwbDW0qyVYXTcS_t-58" vertex="1">
          <mxGeometry y="26" width="160" height="104" as="geometry" />
        </mxCell>
        <mxCell id="gSOltwbDW0qyVYXTcS_t-60" value="" style="line;strokeWidth=1;fillColor=none;align=left;verticalAlign=middle;spacingTop=-1;spacingLeft=3;spacingRight=3;rotatable=0;labelPosition=right;points=[];portConstraint=eastwest;strokeColor=inherit;" parent="gSOltwbDW0qyVYXTcS_t-58" vertex="1">
          <mxGeometry y="130" width="160" height="8" as="geometry" />
        </mxCell>
        <mxCell id="gSOltwbDW0qyVYXTcS_t-63" value="0,n" style="text;html=1;align=center;verticalAlign=middle;whiteSpace=wrap;rounded=0;" parent="1" vertex="1">
          <mxGeometry x="260" y="140" width="60" height="30" as="geometry" />
        </mxCell>
        <mxCell id="gSOltwbDW0qyVYXTcS_t-64" value="1,n" style="text;html=1;align=center;verticalAlign=middle;whiteSpace=wrap;rounded=0;" parent="1" vertex="1">
          <mxGeometry x="480" y="100" width="60" height="30" as="geometry" />
        </mxCell>
        <mxCell id="gSOltwbDW0qyVYXTcS_t-65" value="1,n" style="text;html=1;align=center;verticalAlign=middle;whiteSpace=wrap;rounded=0;" parent="1" vertex="1">
          <mxGeometry x="660" y="284" width="60" height="30" as="geometry" />
        </mxCell>
        <mxCell id="gSOltwbDW0qyVYXTcS_t-66" value="1,n" style="text;html=1;align=center;verticalAlign=middle;whiteSpace=wrap;rounded=0;" parent="1" vertex="1">
          <mxGeometry x="710" y="194" width="60" height="30" as="geometry" />
        </mxCell>
        <mxCell id="gSOltwbDW0qyVYXTcS_t-67" value="1,n" style="text;html=1;align=center;verticalAlign=middle;whiteSpace=wrap;rounded=0;" parent="1" vertex="1">
          <mxGeometry x="340" y="330" width="60" height="30" as="geometry" />
        </mxCell>
        <mxCell id="gSOltwbDW0qyVYXTcS_t-69" value="" style="endArrow=none;html=1;rounded=0;entryX=0.445;entryY=1.045;entryDx=0;entryDy=0;entryPerimeter=0;exitX=0.378;exitY=-0.028;exitDx=0;exitDy=0;exitPerimeter=0;" parent="1" source="gSOltwbDW0qyVYXTcS_t-5" target="gSOltwbDW0qyVYXTcS_t-4" edge="1">
          <mxGeometry width="50" height="50" relative="1" as="geometry">
            <mxPoint x="390" y="300" as="sourcePoint" />
            <mxPoint x="440" y="250" as="targetPoint" />
          </mxGeometry>
        </mxCell>
        <mxCell id="gSOltwbDW0qyVYXTcS_t-70" value="0,n" style="text;html=1;align=center;verticalAlign=middle;whiteSpace=wrap;rounded=0;" parent="1" vertex="1">
          <mxGeometry x="100" y="330" width="60" height="30" as="geometry" />
        </mxCell>
        <mxCell id="gSOltwbDW0qyVYXTcS_t-72" value="0,n" style="text;html=1;align=center;verticalAlign=middle;whiteSpace=wrap;rounded=0;" parent="1" vertex="1">
          <mxGeometry x="35" y="280" width="60" height="30" as="geometry" />
        </mxCell>
        <mxCell id="gSOltwbDW0qyVYXTcS_t-73" value="" style="endArrow=classic;html=1;rounded=0;exitX=1;exitY=1;exitDx=0;exitDy=0;" parent="1" source="gSOltwbDW0qyVYXTcS_t-65" target="gSOltwbDW0qyVYXTcS_t-38" edge="1">
          <mxGeometry width="50" height="50" relative="1" as="geometry">
            <mxPoint x="390" y="300" as="sourcePoint" />
            <mxPoint x="440" y="250" as="targetPoint" />
          </mxGeometry>
        </mxCell>
        <mxCell id="gSOltwbDW0qyVYXTcS_t-74" value="Note" style="swimlane;fontStyle=1;align=center;verticalAlign=top;childLayout=stackLayout;horizontal=1;startSize=26;horizontalStack=0;resizeParent=1;resizeParentMax=0;resizeLast=0;collapsible=1;marginBottom=0;whiteSpace=wrap;html=1;" parent="1" vertex="1">
          <mxGeometry x="320" y="560" width="160" height="86" as="geometry" />
        </mxCell>
        <mxCell id="gSOltwbDW0qyVYXTcS_t-75" value="-matiere:Matiere" style="text;strokeColor=none;fillColor=none;align=left;verticalAlign=top;spacingLeft=4;spacingRight=4;overflow=hidden;rotatable=0;points=[[0,0.5],[1,0.5]];portConstraint=eastwest;whiteSpace=wrap;html=1;" parent="gSOltwbDW0qyVYXTcS_t-74" vertex="1">
          <mxGeometry y="26" width="160" height="26" as="geometry" />
        </mxCell>
        <mxCell id="gSOltwbDW0qyVYXTcS_t-76" value="" style="line;strokeWidth=1;fillColor=none;align=left;verticalAlign=middle;spacingTop=-1;spacingLeft=3;spacingRight=3;rotatable=0;labelPosition=right;points=[];portConstraint=eastwest;strokeColor=inherit;" parent="gSOltwbDW0qyVYXTcS_t-74" vertex="1">
          <mxGeometry y="52" width="160" height="8" as="geometry" />
        </mxCell>
        <mxCell id="gSOltwbDW0qyVYXTcS_t-77" value="+CalculNoteMat(matiere)" style="text;strokeColor=none;fillColor=none;align=left;verticalAlign=top;spacingLeft=4;spacingRight=4;overflow=hidden;rotatable=0;points=[[0,0.5],[1,0.5]];portConstraint=eastwest;whiteSpace=wrap;html=1;" parent="gSOltwbDW0qyVYXTcS_t-74" vertex="1">
          <mxGeometry y="60" width="160" height="26" as="geometry" />
        </mxCell>
        <mxCell id="gSOltwbDW0qyVYXTcS_t-78" value="" style="endArrow=none;html=1;rounded=0;exitX=0.5;exitY=0;exitDx=0;exitDy=0;entryX=0.5;entryY=1;entryDx=0;entryDy=0;" parent="1" source="gSOltwbDW0qyVYXTcS_t-74" edge="1">
          <mxGeometry relative="1" as="geometry">
            <mxPoint x="310" y="460" as="sourcePoint" />
            <mxPoint x="399.9999999999998" y="480" as="targetPoint" />
          </mxGeometry>
        </mxCell>
        <mxCell id="gSOltwbDW0qyVYXTcS_t-79" value="1,n" style="text;html=1;align=center;verticalAlign=middle;whiteSpace=wrap;rounded=0;" parent="1" vertex="1">
          <mxGeometry x="400" y="494" width="60" height="30" as="geometry" />
        </mxCell>
        <mxCell id="gSOltwbDW0qyVYXTcS_t-80" value="0,n" style="text;html=1;align=center;verticalAlign=middle;whiteSpace=wrap;rounded=0;" parent="1" vertex="1">
          <mxGeometry x="340" y="530" width="60" height="30" as="geometry" />
        </mxCell>
        <mxCell id="PflsSvMwxP4FA7I2UKXp-1" value="Cours" style="swimlane;fontStyle=1;align=center;verticalAlign=top;childLayout=stackLayout;horizontal=1;startSize=26;horizontalStack=0;resizeParent=1;resizeParentMax=0;resizeLast=0;collapsible=1;marginBottom=0;whiteSpace=wrap;html=1;" parent="1" vertex="1">
          <mxGeometry x="600" y="520" width="160" height="108" as="geometry" />
        </mxCell>
        <mxCell id="PflsSvMwxP4FA7I2UKXp-2" value="-jour:enum&lt;div&gt;-heureDebut: Date&lt;/div&gt;&lt;div&gt;-heureFin: Date&lt;/div&gt;&lt;div&gt;-matiere:Matiere&lt;/div&gt;&lt;div&gt;-salle:String&lt;br&gt;&lt;div&gt;&lt;br&gt;&lt;/div&gt;&lt;/div&gt;" style="text;strokeColor=none;fillColor=none;align=left;verticalAlign=top;spacingLeft=4;spacingRight=4;overflow=hidden;rotatable=0;points=[[0,0.5],[1,0.5]];portConstraint=eastwest;whiteSpace=wrap;html=1;" parent="PflsSvMwxP4FA7I2UKXp-1" vertex="1">
          <mxGeometry y="26" width="160" height="74" as="geometry" />
        </mxCell>
        <mxCell id="PflsSvMwxP4FA7I2UKXp-3" value="" style="line;strokeWidth=1;fillColor=none;align=left;verticalAlign=middle;spacingTop=-1;spacingLeft=3;spacingRight=3;rotatable=0;labelPosition=right;points=[];portConstraint=eastwest;strokeColor=inherit;" parent="PflsSvMwxP4FA7I2UKXp-1" vertex="1">
          <mxGeometry y="100" width="160" height="8" as="geometry" />
        </mxCell>
        <mxCell id="ctwPpmjzJJEa8-6qd_c5-1" value="Matiere" style="swimlane;fontStyle=1;align=center;verticalAlign=top;childLayout=stackLayout;horizontal=1;startSize=26;horizontalStack=0;resizeParent=1;resizeParentMax=0;resizeLast=0;collapsible=1;marginBottom=0;whiteSpace=wrap;html=1;" vertex="1" parent="1">
          <mxGeometry x="320" y="390" width="160" height="90" as="geometry" />
        </mxCell>
        <mxCell id="ctwPpmjzJJEa8-6qd_c5-2" value="-nom:String" style="text;strokeColor=none;fillColor=none;align=left;verticalAlign=top;spacingLeft=4;spacingRight=4;overflow=hidden;rotatable=0;points=[[0,0.5],[1,0.5]];portConstraint=eastwest;whiteSpace=wrap;html=1;" vertex="1" parent="ctwPpmjzJJEa8-6qd_c5-1">
          <mxGeometry y="26" width="160" height="14" as="geometry" />
        </mxCell>
        <mxCell id="ctwPpmjzJJEa8-6qd_c5-3" value="" style="line;strokeWidth=1;fillColor=none;align=left;verticalAlign=middle;spacingTop=-1;spacingLeft=3;spacingRight=3;rotatable=0;labelPosition=right;points=[];portConstraint=eastwest;strokeColor=inherit;" vertex="1" parent="ctwPpmjzJJEa8-6qd_c5-1">
          <mxGeometry y="40" width="160" height="8" as="geometry" />
        </mxCell>
        <mxCell id="ctwPpmjzJJEa8-6qd_c5-4" value="+appreciationMat(matiere)" style="text;strokeColor=none;fillColor=none;align=left;verticalAlign=top;spacingLeft=4;spacingRight=4;overflow=hidden;rotatable=0;points=[[0,0.5],[1,0.5]];portConstraint=eastwest;whiteSpace=wrap;html=1;" vertex="1" parent="ctwPpmjzJJEa8-6qd_c5-1">
          <mxGeometry y="48" width="160" height="42" as="geometry" />
        </mxCell>
      </root>
    </mxGraphModel>
  </diagram>
</mxfile>
